<?xml version="1.0" standalone="no"?><!DOCTYPE svg PUBLIC "-//W3C//DTD SVG 1.1//EN" "http://www.w3.org/Graphics/SVG/1.1/DTD/svg11.dtd"><svg class="icon" width="200px" height="200.00px" viewBox="0 0 1024 1024" version="1.1" xmlns="http://www.w3.org/2000/svg"><path d="M938.752 298.6496l-106.7008-21.2992 21.3504-106.7008-106.6496 21.3504-21.3504-128-128 64L512.0512 0 426.752 128l-128-64-21.3504 128-106.6496-21.3504 21.2992 106.7008-106.6496 21.2992L170.752 384l-64 106.6496h810.6496L853.4016 384l85.3504-85.3504z" fill="#FFEE58" /><path d="M768 298.6496l85.3504-128-21.3504 106.6496-64 21.3504zM789.4016 362.6496l149.3504-64L853.4016 384l-64-21.3504zM810.752 490.7008l-21.3504-85.3504 128 85.3504h-106.6496zM255.9488 298.6496l-85.3504-128 21.3504 106.6496 64 21.3504zM234.752 362.6496l-149.3504-64L170.752 384l64-21.3504zM213.248 490.7008l21.3504-85.3504-128 85.3504h106.6496z" fill="#FBC02D" /><path d="M789.4016 554.6496h42.9056c23.4496 0 42.4448 18.944 42.4448 42.3936 0 33.9456-15.872 100.352-25.856 124.416-11.4688 27.8528-18.0736 45.2096-30.976 56.5248-12.9024 11.3664-28.5184 11.3152-28.5184 11.3152v-234.6496z" fill="#FFBCA7" /><path d="M789.4016 682.6496c0-93.3376 64-85.3504 64-85.3504s-21.3504 10.7008-21.3504 85.3504c0 42.6496-23.9616 42.6496-23.9616 42.6496s-18.688 0-18.688-42.6496z" fill="#FFAD93" /><path d="M234.752 554.6496h-42.9568a42.3936 42.3936 0 0 0-42.3936 42.3936c0 33.9456 15.872 100.352 25.856 124.416 11.4688 27.8528 18.0736 45.2096 30.976 56.5248 12.9024 11.3664 28.5184 11.3152 28.5184 11.3152v-234.6496z" fill="#FFBCA7" /><path d="M216.1152 725.2992s-23.9616 0-23.9616-42.6496c0-74.6496-21.3504-85.3504-21.3504-85.3504s64-7.9872 64 85.3504c0 42.6496-18.688 42.6496-18.688 42.6496z" fill="#FFAD93" /><path d="M512.0512 426.6496c-271.616 0-298.6496 128-298.6496 128v128c0 64 21.3504 128 64 192 11.5712 17.408 107.3152 149.3504 234.6496 149.3504s223.0784-131.9424 234.7008-149.3504c42.6496-64 64-128 64-192v-128s-27.0848-128-298.7008-128z" fill="#FFDBD0" /><path d="M725.3504 661.3504s-21.3504-21.3504-64-21.3504c-64 0-85.3504 64-85.3504 64l21.3504 21.3504h62.1056c26.1632 0 59.5456-11.264 65.8944-42.7008v-21.2992z" fill="#F5E9E8" /><path d="M661.248 725.3504a42.6496 42.6496 0 1 0 0-85.3504 42.6496 42.6496 0 0 0 0 85.3504z" fill="#0277BD" /><path d="M661.3504 704a21.3504 21.3504 0 1 0 0-42.6496 21.3504 21.3504 0 0 0 0 42.6496z" fill="#212121" /><path d="M576 704s21.3504-42.7008 149.3504-42.7008c0-23.552-26.6752-42.6496-53.3504-42.6496-96 0-96 85.3504-96 85.3504z" fill="#212121" /><path d="M746.5984 576l-160 85.3504h-32l85.3504-85.3504h106.6496z" fill="#FBC02D" /><path d="M298.8032 661.3504s21.3504-21.3504 64-21.3504c64 0 85.3504 64 85.3504 64l-21.3504 21.3504H364.6976c-26.2144 0-59.5456-11.264-65.8944-42.7008v-21.2992z" fill="#F5E9E8" /><path d="M362.6496 725.3504a42.6496 42.6496 0 1 0 0-85.3504 42.6496 42.6496 0 0 0 0 85.3504z" fill="#0277BD" /><path d="M362.752 704a21.3504 21.3504 0 1 0 0-42.6496 21.3504 21.3504 0 0 0 0 42.6496z" fill="#212121" /><path d="M448.1536 704s-21.3504-42.7008-149.3504-42.7008c0-23.552 26.624-42.6496 53.3504-42.6496 96 0 96 85.3504 96 85.3504z" fill="#212121" /><path d="M277.4016 576l160 85.3504h32L384.0512 576H277.4016z" fill="#FBC02D" /><path d="M384.1024 768l-142.5408 41.984a372.2752 372.2752 0 0 1-15.5648-41.984h158.1056zM362.8032 832L289.1776 890.88c-5.7344-7.68-9.7792-13.4144-11.7248-16.2304a404.1216 404.1216 0 0 1-13.6704-21.76l99.0208-20.8896zM384.1536 874.6496l-33.536 80.384a419.84 419.84 0 0 1-32.6144-30.8736l66.1504-49.5104zM798.1056 768c-4.3008 14.08-9.4208 28.16-15.8208 42.24L640 768h158.1056zM734.976 890.88l-73.5744-58.88 98.9696 20.8896-25.3952 37.9904zM673.6896 955.0848l-33.6896-80.4352 66.1504 49.5104-32.4608 30.9248zM576 874.6496h-128v42.6496h128v-42.6496zM469.4016 789.3504h85.3504s-21.3504 42.6496-42.7008 42.6496c-21.2992 0-42.6496-42.6496-42.6496-42.6496z" fill="#FFBCA7" /><path d="M213.4016 576v106.6496l42.6496-106.6496h-42.6496zM810.6496 576v106.6496L768 576h42.6496z" fill="#FFEE58" /><path d="M725.3504 405.3504C676.0448 388.9152 554.6496 384 512 384c-42.6496 0-164.0448 4.9152-213.3504 21.3504-40.96 13.6192-73.216 44.7488-91.0336 65.4336a63.8464 63.8464 0 0 0-15.616 41.8816v45.6704c0 10.24 7.3216 19.0976 17.408 20.992 32.9728 5.9392 105.1648 18.0224 153.2416 18.0224h298.7008c48.128 0 120.32-12.0832 153.1904-18.0736a21.2992 21.2992 0 0 0 17.4592-20.992v-45.6192c0-15.4112-5.5296-30.208-15.616-41.8816-17.8688-20.6848-50.0736-51.8144-91.0336-65.4336z" fill="#113669" /><path d="M511.9488 426.6496c-29.8496 0-84.0192 2.2528-130.5088 7.1168a21.248 21.248 0 0 0-18.8416 21.1968v78.336c0 11.776 9.5744 21.3504 21.3504 21.3504h256c11.776 0 21.2992-9.5744 21.2992-21.3504v-78.336a21.248 21.248 0 0 0-18.8416-21.1968 1427.2512 1427.2512 0 0 0-130.4576-7.1168z" fill="#B2B2BC" /><path d="M394.6496 533.3504a10.6496 10.6496 0 1 0 0-21.3504 10.6496 10.6496 0 0 0 0 21.3504zM394.6496 469.3504a10.6496 10.6496 0 1 0 0-21.3504 10.6496 10.6496 0 0 0 0 21.3504zM629.248 533.3504a10.6496 10.6496 0 1 0 0-21.3504 10.6496 10.6496 0 0 0 0 21.3504zM629.248 469.3504a10.6496 10.6496 0 1 0 0-21.3504 10.6496 10.6496 0 0 0 0 21.3504zM567.9104 456.0896a10.6496 10.6496 0 0 0-15.104 0l-7.8848 7.8848a48.128 48.128 0 0 0-32.9216-13.312 42.5984 42.5984 0 0 0-42.496 40.4992l-19.3536 25.344a10.4448 10.4448 0 0 0 8.3456 16.7936h50.8416c19.2512 0 29.3376-12.0832 29.3376-23.9616 0-13.6192-9.8304-18.688-16.0256-18.688a10.6496 10.6496 0 0 0-10.6496 10.6496c0 1.6896 0.512 3.2256 1.1776 4.6592 0.2048 0.4608 0.512 0.8192 0.8192 1.2288a10.4448 10.4448 0 0 0 2.1504 2.3552c0.2048 0.2048 0.3072 0.4608 0.512 0.6144-1.024 0.8704-3.328 1.8432-7.3216 1.8432-11.6736 0-18.688-7.0144-18.688-18.688 0-11.776 9.5744-21.3504 21.3504-21.3504 14.848 0 22.9376 12.6976 23.2448 13.1584a10.7008 10.7008 0 0 0 16.6912 2.048l15.9744-16.0256a10.7008 10.7008 0 0 0 0-15.0528z" fill="#6C6C76" /></svg>