<?xml version="1.0" standalone="no"?><!DOCTYPE svg PUBLIC "-//W3C//DTD SVG 1.1//EN" "http://www.w3.org/Graphics/SVG/1.1/DTD/svg11.dtd"><svg class="icon" width="200px" height="200.00px" viewBox="0 0 1024 1024" version="1.1" xmlns="http://www.w3.org/2000/svg"><path d="M696.832 202.496a19.2 19.2 0 0 1-19.2 19.2h-47.04a24.64 24.64 0 0 1-17.28-7.104l-10.752-10.56-24.736 46.656a24.768 24.768 0 0 1-42.784-5.568v-1.728l-17.28-60.672-16.896 64.512a24.64 24.64 0 0 1-20.544 15.552h-2.304a24.608 24.608 0 0 1-20.736-11.328l-32.64-50.848-18.24 15.904a25.376 25.376 0 0 1-14.4 5.376h-53.952a19.104 19.104 0 0 1-19.168-19.2 19.2 19.2 0 0 1 19.168-19.2h48.96l26.304-23.04a24.992 24.992 0 0 1 19.2-5.568 24.704 24.704 0 0 1 16.704 11.136l24.192 38.4 21.696-82.912a24.576 24.576 0 0 1 45.696 0l22.08 78.304 17.472-32.64a24.864 24.864 0 0 1 37.248-3.072l19.232 19.2h40.864a19.2 19.2 0 0 1 19.136 19.2z" fill="#FFE93F" /><path d="M987.872 700.288v96a38.4 38.4 0 0 1-38.368 38.368h-48.192v47.232a57.6 57.6 0 0 1-57.6 57.6L171.84 940.8a57.6 57.6 0 0 1-57.6-57.6v-47.232H66.432a38.272 38.272 0 0 1-38.272-37.76v-97.248a38.208 38.208 0 0 1 38.272-37.792h48.192c2.304-123.616 53.952-211.328 138.624-264.704l-96-194.464a38.4 38.4 0 1 1 34.528-16.864l94.464 191.968a509.536 509.536 0 0 1 220.192-44.704 509.76 509.76 0 0 1 219.616 43.392l93.504-192.928a38.4 38.4 0 1 1 34.528 16.736l-94.048 194.464c85.248 53.344 137.664 140.512 140.352 264.512h48.576a38.4 38.4 0 0 1 38.912 39.712z m-125.344-30.912c-0.608-268.576-248.8-296.96-355.712-296.768-106.944 0.192-354.592 29.568-354.592 298.304v211.2a19.2 19.2 0 0 0 19.2 19.2l671.904-1.344a19.2 19.2 0 0 0 19.2-19.232v-211.36z m-758.272 31.296h-38.4v96h38.4v-96z m844.288-1.728h-38.4v96h38.4v-96z m-216.832-127.296c18.304 20.064 27.264 46.912 24.672 73.92a98.048 98.048 0 0 1-25.728 54.656 98.4 98.4 0 0 1-73.728 32.128h-303.136a95.68 95.68 0 0 1-51.744-15.328 96.416 96.416 0 0 1-19.616-15.936c-2.08-2.272-3.616-4.928-5.44-7.392a95.552 95.552 0 0 1-19.2-66.496 97.984 97.984 0 0 1 18.944-46.72c5.184-7.008 11.264-13.152 18.048-18.528a98.144 98.144 0 0 1 62.432-21.536h303.104a95.52 95.52 0 0 1 59.36 20.672c3.712 2.912 7.328 5.984 10.656 9.44 0.48 0.384 0.992 0.704 1.376 1.12z m-15.072 53.184a59.136 59.136 0 0 0-58.944-46.08h-304.832a57.6 57.6 0 0 0-56.256 69.12 59.104 59.104 0 0 0 58.944 46.048h305.216a57.6 57.6 0 0 0 55.872-69.088z" fill="#969696" /><path d="M65.856 700.672h38.4v96h-38.4v-96z m844.256 94.272h38.4v-96h-38.4v96z" fill="#EA5D5C" /><path d="M296.608 647.872a57.568 57.568 0 0 1 56.256-69.12h304.832a59.168 59.168 0 0 1 58.944 46.08 57.6 57.6 0 0 1-55.872 69.088H355.52a59.008 59.008 0 0 1-58.912-46.048z" fill="#00AADD" /></svg>